<mxfile host="app.diagrams.net" agent="Mozilla/5.0 (Windows NT 10.0; Win64; x64) AppleWebKit/537.36 (KHTML, like Gecko) Chrome/135.0.0.0 Safari/537.36" version="26.2.9">
  <diagram name="第 1 页" id="ugvosG1DgaujPQZnKoml">
    <mxGraphModel dx="2255" dy="1912" grid="1" gridSize="10" guides="1" tooltips="1" connect="1" arrows="1" fold="1" page="1" pageScale="1" pageWidth="827" pageHeight="1169" math="0" shadow="0">
      <root>
        <mxCell id="0" />
        <mxCell id="1" parent="0" />
        <mxCell id="9XyzuUt3XW7BEuWtiqf8-36" value="&lt;div style=&quot;font-family: Consolas, &amp;quot;Courier New&amp;quot;, monospace; font-size: 14px; line-height: 19px; white-space: pre;&quot;&gt;&lt;div style=&quot;line-height: 19px;&quot;&gt;&lt;div style=&quot;&quot;&gt;&lt;font&gt;&lt;span&gt;type&lt;/span&gt; &lt;span&gt;page&lt;/span&gt; &lt;span&gt;struct&lt;/span&gt; {&lt;/font&gt;&lt;/div&gt;&lt;div style=&quot;&quot;&gt;&lt;span&gt;&lt;font&gt;&amp;nbsp; &amp;nbsp; &lt;span&gt;id&lt;/span&gt; &amp;nbsp; &amp;nbsp; &amp;nbsp; &lt;span&gt;pgid  &lt;/span&gt;&lt;/font&gt;&lt;/span&gt;&lt;/div&gt;&lt;div style=&quot;&quot;&gt;&lt;span&gt;&lt;font&gt;&amp;nbsp; &amp;nbsp; &lt;span&gt;flags&lt;/span&gt; &amp;nbsp; &amp;nbsp;&lt;span&gt;uint16&lt;/span&gt;&lt;/font&gt;&lt;/span&gt;&lt;/div&gt;&lt;div style=&quot;&quot;&gt;&lt;span&gt;&lt;font&gt;&amp;nbsp; &amp;nbsp; &lt;span&gt;count&lt;/span&gt; &amp;nbsp; &amp;nbsp;&lt;span&gt;uint16&lt;/span&gt;&lt;/font&gt;&lt;/span&gt;&lt;/div&gt;&lt;div style=&quot;&quot;&gt;&lt;span&gt;&lt;font&gt;&amp;nbsp; &amp;nbsp; &lt;span&gt;overflow&lt;/span&gt; &lt;span&gt;uint32&lt;/span&gt;&lt;/font&gt;&lt;/span&gt;&lt;/div&gt;&lt;div style=&quot;&quot;&gt;&lt;span&gt;&lt;font&gt;&amp;nbsp; &amp;nbsp; &lt;span&gt;ptr&lt;/span&gt; &amp;nbsp; &amp;nbsp; &amp;nbsp;&lt;span&gt;uintptr&lt;/span&gt;&lt;/font&gt;&lt;/span&gt;&lt;/div&gt;&lt;div style=&quot;&quot;&gt;&lt;font&gt;}&lt;/font&gt;&lt;/div&gt;&lt;div style=&quot;&quot;&gt;&lt;font&gt;// 64 64 64 = 192&lt;/font&gt;&lt;/div&gt;&lt;div style=&quot;&quot;&gt;&lt;font&gt;&lt;br&gt;&lt;/font&gt;&lt;/div&gt;&lt;/div&gt;&lt;/div&gt;" style="text;whiteSpace=wrap;html=1;" vertex="1" parent="1">
          <mxGeometry x="-460" y="550" width="190" height="160" as="geometry" />
        </mxCell>
        <mxCell id="9XyzuUt3XW7BEuWtiqf8-37" value="&lt;div style=&quot;font-family: Consolas, &amp;quot;Courier New&amp;quot;, monospace; font-weight: normal; font-size: 14px; line-height: 19px; white-space: pre;&quot;&gt;&lt;div style=&quot;&quot;&gt;&lt;font style=&quot;color: rgb(0, 0, 0);&quot;&gt;&lt;span&gt;type&lt;/span&gt;&lt;span&gt; &lt;/span&gt;&lt;span&gt;meta&lt;/span&gt;&lt;span&gt; &lt;/span&gt;&lt;span&gt;struct&lt;/span&gt;&lt;span&gt; {&lt;/span&gt;&lt;/font&gt;&lt;/div&gt;&lt;div style=&quot;&quot;&gt;&lt;span&gt;&lt;font style=&quot;color: rgb(0, 0, 0);&quot;&gt;&lt;span style=&quot;color: rgb(216, 222, 233);&quot;&gt;&amp;nbsp; &amp;nbsp; &lt;/span&gt;&lt;span style=&quot;color: rgb(170, 155, 245);&quot;&gt;magic&lt;/span&gt;&lt;span style=&quot;color: rgb(216, 222, 233);&quot;&gt; &amp;nbsp; &amp;nbsp;&lt;/span&gt;&lt;span style=&quot;color: rgb(130, 210, 206);&quot;&gt;uint32&lt;/span&gt;&lt;/font&gt;&lt;/span&gt;&lt;/div&gt;&lt;div style=&quot;&quot;&gt;&lt;span&gt;&lt;font style=&quot;color: rgb(0, 0, 0);&quot;&gt;&lt;span style=&quot;color: rgb(216, 222, 233);&quot;&gt;&amp;nbsp; &amp;nbsp; &lt;/span&gt;&lt;span style=&quot;color: rgb(170, 155, 245);&quot;&gt;version&lt;/span&gt;&lt;span style=&quot;color: rgb(216, 222, 233);&quot;&gt; &amp;nbsp;&lt;/span&gt;&lt;span style=&quot;color: rgb(130, 210, 206);&quot;&gt;uint32&lt;/span&gt;&lt;/font&gt;&lt;/span&gt;&lt;/div&gt;&lt;div style=&quot;&quot;&gt;&lt;span&gt;&lt;font style=&quot;color: rgb(0, 0, 0);&quot;&gt;&lt;span style=&quot;color: rgb(216, 222, 233);&quot;&gt;&amp;nbsp; &amp;nbsp; &lt;/span&gt;&lt;span style=&quot;color: rgb(170, 155, 245);&quot;&gt;pageSize&lt;/span&gt;&lt;span style=&quot;color: rgb(216, 222, 233);&quot;&gt; &lt;/span&gt;&lt;span style=&quot;color: rgb(130, 210, 206);&quot;&gt;uint32&lt;/span&gt;&lt;/font&gt;&lt;/span&gt;&lt;/div&gt;&lt;div style=&quot;&quot;&gt;&lt;span&gt;&lt;font style=&quot;color: rgb(0, 0, 0);&quot;&gt;&lt;span style=&quot;color: rgb(216, 222, 233);&quot;&gt;&amp;nbsp; &amp;nbsp; &lt;/span&gt;&lt;span style=&quot;color: rgb(170, 155, 245);&quot;&gt;flags&lt;/span&gt;&lt;span style=&quot;color: rgb(216, 222, 233);&quot;&gt; &amp;nbsp; &amp;nbsp;&lt;/span&gt;&lt;span style=&quot;color: rgb(130, 210, 206);&quot;&gt;uint32&lt;/span&gt;&lt;/font&gt;&lt;/span&gt;&lt;/div&gt;&lt;div style=&quot;&quot;&gt;&lt;span&gt;&lt;font style=&quot;color: rgb(0, 0, 0);&quot;&gt;&lt;span style=&quot;color: rgb(216, 222, 233);&quot;&gt;&amp;nbsp; &amp;nbsp; &lt;/span&gt;&lt;span style=&quot;color: rgb(170, 155, 245);&quot;&gt;buckets&lt;/span&gt;&lt;span style=&quot;color: rgb(216, 222, 233);&quot;&gt; &amp;nbsp;&lt;/span&gt;&lt;span style=&quot;color: rgb(239, 176, 128);&quot;&gt;pgid // 3&lt;/span&gt;&lt;/font&gt;&lt;/span&gt;&lt;/div&gt;&lt;div style=&quot;&quot;&gt;&lt;span&gt;&lt;font style=&quot;color: rgb(0, 0, 0);&quot;&gt;&lt;span style=&quot;color: rgb(216, 222, 233);&quot;&gt;&amp;nbsp; &amp;nbsp; &lt;/span&gt;&lt;span style=&quot;color: rgb(170, 155, 245);&quot;&gt;freelist&lt;/span&gt;&lt;span style=&quot;color: rgb(216, 222, 233);&quot;&gt; &lt;/span&gt;&lt;span style=&quot;color: rgb(239, 176, 128);&quot;&gt;pgid // 2 &lt;/span&gt;&lt;/font&gt;&lt;/span&gt;&lt;/div&gt;&lt;div style=&quot;&quot;&gt;&lt;span&gt;&lt;font style=&quot;color: rgb(0, 0, 0);&quot;&gt;&lt;span style=&quot;color: rgb(216, 222, 233);&quot;&gt;&amp;nbsp; &amp;nbsp; &lt;/span&gt;&lt;span style=&quot;color: rgb(170, 155, 245);&quot;&gt;pgid&lt;/span&gt;&lt;span style=&quot;color: rgb(216, 222, 233);&quot;&gt; &amp;nbsp; &amp;nbsp; &lt;/span&gt;&lt;span style=&quot;color: rgb(239, 176, 128);&quot;&gt;pgid&lt;/span&gt;&lt;span style=&quot;color: rgb(216, 222, 233);&quot;&gt; &lt;/span&gt;&lt;span style=&quot;font-style: italic; color: rgb(109, 109, 109);&quot;&gt;// 4 记录的是当前已经写入数据的最大pageid &amp;nbsp;对meta持久化后，才能真正保证数据持久化&lt;/span&gt;&lt;/font&gt;&lt;/span&gt;&lt;/div&gt;&lt;div style=&quot;&quot;&gt;&lt;span&gt;&lt;font style=&quot;color: rgb(0, 0, 0);&quot;&gt;&lt;span style=&quot;color: rgb(216, 222, 233);&quot;&gt;&amp;nbsp; &amp;nbsp; &lt;/span&gt;&lt;span style=&quot;color: rgb(170, 155, 245);&quot;&gt;txid&lt;/span&gt;&lt;span style=&quot;color: rgb(216, 222, 233);&quot;&gt; &amp;nbsp; &amp;nbsp; &lt;/span&gt;&lt;span style=&quot;color: rgb(239, 176, 128);&quot;&gt;txid&lt;/span&gt;&lt;/font&gt;&lt;/span&gt;&lt;/div&gt;&lt;div style=&quot;&quot;&gt;&lt;span&gt;&lt;font style=&quot;color: rgb(0, 0, 0);&quot;&gt;&lt;span style=&quot;color: rgb(216, 222, 233);&quot;&gt;&amp;nbsp; &amp;nbsp; &lt;/span&gt;&lt;span style=&quot;color: rgb(170, 155, 245);&quot;&gt;checksum&lt;/span&gt;&lt;span style=&quot;color: rgb(216, 222, 233);&quot;&gt; &lt;/span&gt;&lt;span style=&quot;color: rgb(130, 210, 206);&quot;&gt;uint64&lt;/span&gt;&lt;/font&gt;&lt;/span&gt;&lt;/div&gt;&lt;div style=&quot;&quot;&gt;&lt;span style=&quot;color: rgb(216, 222, 233);&quot;&gt;&lt;font style=&quot;color: rgb(0, 0, 0);&quot;&gt;}&lt;/font&gt;&lt;/span&gt;&lt;/div&gt;&lt;div style=&quot;&quot;&gt;&lt;span style=&quot;color: rgb(216, 222, 233);&quot;&gt;&lt;font style=&quot;color: rgb(0, 0, 0);&quot;&gt;// 128 64 64 64 64 64&lt;/font&gt;&lt;/span&gt;&lt;/div&gt;&lt;div style=&quot;&quot;&gt;&lt;span style=&quot;color: rgb(216, 222, 233);&quot;&gt;&lt;font style=&quot;color: rgb(0, 0, 0);&quot;&gt;&lt;br&gt;&lt;/font&gt;&lt;/span&gt;&lt;/div&gt;&lt;/div&gt;" style="text;whiteSpace=wrap;html=1;" vertex="1" parent="1">
          <mxGeometry x="-200" y="510" width="560" height="230" as="geometry" />
        </mxCell>
        <mxCell id="9XyzuUt3XW7BEuWtiqf8-38" value="4MB(1024个页)" style="text;html=1;align=center;verticalAlign=middle;resizable=0;points=[];autosize=1;strokeColor=none;fillColor=none;" vertex="1" parent="1">
          <mxGeometry x="315" y="430" width="110" height="30" as="geometry" />
        </mxCell>
        <mxCell id="9XyzuUt3XW7BEuWtiqf8-40" value="&lt;div style=&quot;font-family: Consolas, &amp;quot;Courier New&amp;quot;, monospace; font-weight: normal; font-size: 14px; line-height: 19px; white-space: pre;&quot;&gt;&lt;div style=&quot;&quot;&gt;&lt;span&gt;&lt;font style=&quot;color: rgb(0, 0, 0);&quot;&gt;&lt;span style=&quot;color: rgb(131, 214, 197);&quot;&gt;type&lt;/span&gt;&lt;span style=&quot;color: rgb(216, 222, 233);&quot;&gt; &lt;/span&gt;&lt;span style=&quot;color: rgb(239, 176, 128);&quot;&gt;DB&lt;/span&gt;&lt;span style=&quot;color: rgb(216, 222, 233);&quot;&gt; &lt;/span&gt;&lt;span style=&quot;color: rgb(131, 214, 197);&quot;&gt;struct&lt;/span&gt;&lt;span style=&quot;color: rgb(216, 222, 233);&quot;&gt; {&lt;/span&gt;&lt;/font&gt;&lt;/span&gt;&lt;/div&gt;&lt;div style=&quot;&quot;&gt;&lt;span&gt;&lt;font style=&quot;color: rgb(0, 0, 0);&quot;&gt;&lt;span style=&quot;color: rgb(216, 222, 233);&quot;&gt;&amp;nbsp; &amp;nbsp; &lt;/span&gt;&lt;span style=&quot;color: rgb(170, 155, 245);&quot;&gt;path&lt;/span&gt;&lt;span style=&quot;color: rgb(216, 222, 233);&quot;&gt; &amp;nbsp; &amp;nbsp; &lt;/span&gt;&lt;span style=&quot;color: rgb(130, 210, 206);&quot;&gt;string&lt;/span&gt;&lt;/font&gt;&lt;/span&gt;&lt;/div&gt;&lt;div style=&quot;&quot;&gt;&lt;span&gt;&lt;font style=&quot;color: rgb(0, 0, 0);&quot;&gt;&lt;span style=&quot;color: rgb(216, 222, 233);&quot;&gt;&amp;nbsp; &amp;nbsp; &lt;/span&gt;&lt;span style=&quot;color: rgb(170, 155, 245);&quot;&gt;file&lt;/span&gt;&lt;span style=&quot;color: rgb(216, 222, 233);&quot;&gt; &amp;nbsp; &amp;nbsp; &lt;/span&gt;&lt;span style=&quot;color: rgb(131, 214, 197);&quot;&gt;*&lt;/span&gt;&lt;span style=&quot;color: rgb(239, 176, 128);&quot;&gt;os&lt;/span&gt;&lt;span style=&quot;color: rgb(216, 222, 233);&quot;&gt;.&lt;/span&gt;&lt;span style=&quot;color: rgb(239, 176, 128);&quot;&gt;File&lt;/span&gt;&lt;/font&gt;&lt;/span&gt;&lt;/div&gt;&lt;div style=&quot;&quot;&gt;&lt;span&gt;&lt;font style=&quot;color: rgb(0, 0, 0);&quot;&gt;&lt;span style=&quot;color: rgb(216, 222, 233);&quot;&gt;&amp;nbsp; &amp;nbsp; &lt;/span&gt;&lt;span style=&quot;color: rgb(170, 155, 245);&quot;&gt;data&lt;/span&gt;&lt;span style=&quot;color: rgb(216, 222, 233);&quot;&gt; &amp;nbsp; &amp;nbsp; []&lt;/span&gt;&lt;span style=&quot;color: rgb(130, 210, 206);&quot;&gt;byte&lt;/span&gt;&lt;/font&gt;&lt;/span&gt;&lt;/div&gt;&lt;div style=&quot;&quot;&gt;&lt;span&gt;&lt;font style=&quot;color: rgb(0, 0, 0);&quot;&gt;&lt;span style=&quot;color: rgb(216, 222, 233);&quot;&gt;&amp;nbsp; &amp;nbsp; &lt;/span&gt;&lt;span style=&quot;color: rgb(170, 155, 245);&quot;&gt;meta0&lt;/span&gt;&lt;span style=&quot;color: rgb(216, 222, 233);&quot;&gt; &amp;nbsp; &amp;nbsp;&lt;/span&gt;&lt;span style=&quot;color: rgb(131, 214, 197);&quot;&gt;*&lt;/span&gt;&lt;span style=&quot;color: rgb(239, 176, 128);&quot;&gt;meta&lt;/span&gt;&lt;/font&gt;&lt;/span&gt;&lt;/div&gt;&lt;div style=&quot;&quot;&gt;&lt;span&gt;&lt;font style=&quot;color: rgb(0, 0, 0);&quot;&gt;&lt;span style=&quot;color: rgb(216, 222, 233);&quot;&gt;&amp;nbsp; &amp;nbsp; &lt;/span&gt;&lt;span style=&quot;color: rgb(170, 155, 245);&quot;&gt;meta1&lt;/span&gt;&lt;span style=&quot;color: rgb(216, 222, 233);&quot;&gt; &amp;nbsp; &amp;nbsp;&lt;/span&gt;&lt;span style=&quot;color: rgb(131, 214, 197);&quot;&gt;*&lt;/span&gt;&lt;span style=&quot;color: rgb(239, 176, 128);&quot;&gt;meta&lt;/span&gt;&lt;/font&gt;&lt;/span&gt;&lt;/div&gt;&lt;div style=&quot;&quot;&gt;&lt;span&gt;&lt;font style=&quot;color: rgb(0, 0, 0);&quot;&gt;&lt;span style=&quot;color: rgb(216, 222, 233);&quot;&gt;&amp;nbsp; &amp;nbsp; &lt;/span&gt;&lt;span style=&quot;color: rgb(170, 155, 245);&quot;&gt;pageSize&lt;/span&gt;&lt;span style=&quot;color: rgb(216, 222, 233);&quot;&gt; &lt;/span&gt;&lt;span style=&quot;color: rgb(130, 210, 206);&quot;&gt;int&lt;/span&gt;&lt;/font&gt;&lt;/span&gt;&lt;/div&gt;&lt;div style=&quot;&quot;&gt;&lt;span&gt;&lt;font style=&quot;color: rgb(0, 0, 0);&quot;&gt;&lt;span style=&quot;color: rgb(216, 222, 233);&quot;&gt;&amp;nbsp; &amp;nbsp; &lt;/span&gt;&lt;span style=&quot;color: rgb(170, 155, 245);&quot;&gt;opened&lt;/span&gt;&lt;span style=&quot;color: rgb(216, 222, 233);&quot;&gt; &amp;nbsp; &lt;/span&gt;&lt;span style=&quot;color: rgb(130, 210, 206);&quot;&gt;bool&lt;/span&gt;&lt;/font&gt;&lt;/span&gt;&lt;/div&gt;&lt;div style=&quot;&quot;&gt;&lt;span&gt;&lt;font style=&quot;color: rgb(0, 0, 0);&quot;&gt;&lt;span style=&quot;color: rgb(216, 222, 233);&quot;&gt;&amp;nbsp; &amp;nbsp; &lt;/span&gt;&lt;span style=&quot;color: rgb(170, 155, 245);&quot;&gt;rwtx&lt;/span&gt;&lt;span style=&quot;color: rgb(216, 222, 233);&quot;&gt; &amp;nbsp; &amp;nbsp; &lt;/span&gt;&lt;span style=&quot;color: rgb(131, 214, 197);&quot;&gt;*&lt;/span&gt;&lt;span style=&quot;color: rgb(239, 176, 128);&quot;&gt;Tx&lt;/span&gt;&lt;span style=&quot;color: rgb(216, 222, 233);&quot;&gt; &lt;/span&gt;&lt;span style=&quot;font-style: italic; color: rgb(109, 109, 109);&quot;&gt;// 存储读写事务&lt;/span&gt;&lt;/font&gt;&lt;/span&gt;&lt;/div&gt;&lt;div style=&quot;&quot;&gt;&lt;span&gt;&lt;font style=&quot;color: rgb(0, 0, 0);&quot;&gt;&lt;span style=&quot;color: rgb(216, 222, 233);&quot;&gt;&amp;nbsp; &amp;nbsp; &lt;/span&gt;&lt;span style=&quot;color: rgb(170, 155, 245);&quot;&gt;txs&lt;/span&gt;&lt;span style=&quot;color: rgb(216, 222, 233);&quot;&gt; &amp;nbsp; &amp;nbsp; &amp;nbsp;[]&lt;/span&gt;&lt;span style=&quot;color: rgb(131, 214, 197);&quot;&gt;*&lt;/span&gt;&lt;span style=&quot;color: rgb(239, 176, 128);&quot;&gt;Tx&lt;/span&gt;&lt;span style=&quot;color: rgb(216, 222, 233);&quot;&gt; &lt;/span&gt;&lt;span style=&quot;font-style: italic; color: rgb(109, 109, 109);&quot;&gt;// 存储读事务&lt;/span&gt;&lt;/font&gt;&lt;/span&gt;&lt;/div&gt;&lt;div style=&quot;&quot;&gt;&lt;span&gt;&lt;font style=&quot;color: rgb(0, 0, 0);&quot;&gt;&lt;span style=&quot;color: rgb(216, 222, 233);&quot;&gt;&amp;nbsp; &amp;nbsp; &lt;/span&gt;&lt;span style=&quot;color: rgb(170, 155, 245);&quot;&gt;freelist&lt;/span&gt;&lt;span style=&quot;color: rgb(216, 222, 233);&quot;&gt; &lt;/span&gt;&lt;span style=&quot;color: rgb(131, 214, 197);&quot;&gt;*&lt;/span&gt;&lt;span style=&quot;color: rgb(239, 176, 128);&quot;&gt;freelist&lt;/span&gt;&lt;/font&gt;&lt;/span&gt;&lt;/div&gt;&lt;div style=&quot;&quot;&gt;&lt;span&gt;&lt;font style=&quot;color: rgb(0, 0, 0);&quot;&gt;&lt;span style=&quot;color: rgb(216, 222, 233);&quot;&gt;&amp;nbsp; &amp;nbsp; &lt;/span&gt;&lt;span style=&quot;color: rgb(170, 155, 245);&quot;&gt;stats&lt;/span&gt;&lt;span style=&quot;color: rgb(216, 222, 233);&quot;&gt; &amp;nbsp; &amp;nbsp;&lt;/span&gt;&lt;span style=&quot;color: rgb(239, 176, 128);&quot;&gt;Stats&lt;/span&gt;&lt;/font&gt;&lt;/span&gt;&lt;/div&gt;&lt;span&gt;&lt;font style=&quot;color: rgb(0, 0, 0);&quot;&gt;&lt;br&gt;&lt;/font&gt;&lt;/span&gt;&lt;div style=&quot;&quot;&gt;&lt;span&gt;&lt;font style=&quot;color: rgb(0, 0, 0);&quot;&gt;&lt;span style=&quot;color: rgb(216, 222, 233);&quot;&gt;&amp;nbsp; &amp;nbsp; &lt;/span&gt;&lt;span style=&quot;color: rgb(170, 155, 245);&quot;&gt;rwlock&lt;/span&gt;&lt;span style=&quot;color: rgb(216, 222, 233);&quot;&gt; &amp;nbsp; &lt;/span&gt;&lt;span style=&quot;color: rgb(239, 176, 128);&quot;&gt;sync&lt;/span&gt;&lt;span style=&quot;color: rgb(216, 222, 233);&quot;&gt;.&lt;/span&gt;&lt;span style=&quot;color: rgb(239, 176, 128);&quot;&gt;Mutex&lt;/span&gt;&lt;span style=&quot;color: rgb(216, 222, 233);&quot;&gt; &amp;nbsp; &lt;/span&gt;&lt;span style=&quot;font-style: italic; color: rgb(109, 109, 109);&quot;&gt;// Allows only one writer at a time.&lt;/span&gt;&lt;/font&gt;&lt;/span&gt;&lt;/div&gt;&lt;div style=&quot;&quot;&gt;&lt;span&gt;&lt;font style=&quot;color: rgb(0, 0, 0);&quot;&gt;&lt;span style=&quot;color: rgb(216, 222, 233);&quot;&gt;&amp;nbsp; &amp;nbsp; &lt;/span&gt;&lt;span style=&quot;color: rgb(170, 155, 245);&quot;&gt;metalock&lt;/span&gt;&lt;span style=&quot;color: rgb(216, 222, 233);&quot;&gt; &lt;/span&gt;&lt;span style=&quot;color: rgb(239, 176, 128);&quot;&gt;sync&lt;/span&gt;&lt;span style=&quot;color: rgb(216, 222, 233);&quot;&gt;.&lt;/span&gt;&lt;span style=&quot;color: rgb(239, 176, 128);&quot;&gt;Mutex&lt;/span&gt;&lt;span style=&quot;color: rgb(216, 222, 233);&quot;&gt; &amp;nbsp; &lt;/span&gt;&lt;span style=&quot;font-style: italic; color: rgb(109, 109, 109);&quot;&gt;// Protects meta page access.&lt;/span&gt;&lt;/font&gt;&lt;/span&gt;&lt;/div&gt;&lt;div style=&quot;&quot;&gt;&lt;span&gt;&lt;font style=&quot;color: rgb(0, 0, 0);&quot;&gt;&lt;span style=&quot;color: rgb(216, 222, 233);&quot;&gt;&amp;nbsp; &amp;nbsp; &lt;/span&gt;&lt;span style=&quot;color: rgb(170, 155, 245);&quot;&gt;mmaplock&lt;/span&gt;&lt;span style=&quot;color: rgb(216, 222, 233);&quot;&gt; &lt;/span&gt;&lt;span style=&quot;color: rgb(239, 176, 128);&quot;&gt;sync&lt;/span&gt;&lt;span style=&quot;color: rgb(216, 222, 233);&quot;&gt;.&lt;/span&gt;&lt;span style=&quot;color: rgb(239, 176, 128);&quot;&gt;RWMutex&lt;/span&gt;&lt;span style=&quot;color: rgb(216, 222, 233);&quot;&gt; &lt;/span&gt;&lt;span style=&quot;font-style: italic; color: rgb(109, 109, 109);&quot;&gt;// Protects mmap access during remapping.&lt;/span&gt;&lt;/font&gt;&lt;/span&gt;&lt;/div&gt;&lt;span&gt;&lt;font style=&quot;color: rgb(0, 0, 0);&quot;&gt;&lt;br&gt;&lt;/font&gt;&lt;/span&gt;&lt;div style=&quot;&quot;&gt;&lt;span&gt;&lt;font style=&quot;color: rgb(0, 0, 0);&quot;&gt;&lt;span style=&quot;color: rgb(216, 222, 233);&quot;&gt;&amp;nbsp; &amp;nbsp; &lt;/span&gt;&lt;span style=&quot;color: rgb(170, 155, 245);&quot;&gt;ops&lt;/span&gt;&lt;span style=&quot;color: rgb(216, 222, 233);&quot;&gt; &lt;/span&gt;&lt;span style=&quot;color: rgb(131, 214, 197);&quot;&gt;struct&lt;/span&gt;&lt;span style=&quot;color: rgb(216, 222, 233);&quot;&gt; {&lt;/span&gt;&lt;/font&gt;&lt;/span&gt;&lt;/div&gt;&lt;div style=&quot;&quot;&gt;&lt;span&gt;&lt;font style=&quot;color: rgb(0, 0, 0);&quot;&gt;&lt;span style=&quot;color: rgb(216, 222, 233);&quot;&gt;&amp;nbsp; &amp;nbsp; &amp;nbsp; &amp;nbsp; &lt;/span&gt;&lt;span style=&quot;color: rgb(170, 155, 245);&quot;&gt;writeAt&lt;/span&gt;&lt;span style=&quot;color: rgb(216, 222, 233);&quot;&gt; &lt;/span&gt;&lt;span style=&quot;color: rgb(131, 214, 197);&quot;&gt;func&lt;/span&gt;&lt;span style=&quot;color: rgb(216, 222, 233);&quot;&gt;(&lt;/span&gt;&lt;span style=&quot;font-style: italic; color: rgb(214, 214, 221);&quot;&gt;b&lt;/span&gt;&lt;span style=&quot;color: rgb(216, 222, 233);&quot;&gt; []&lt;/span&gt;&lt;span style=&quot;color: rgb(130, 210, 206);&quot;&gt;byte&lt;/span&gt;&lt;span style=&quot;color: rgb(216, 222, 233);&quot;&gt;, &lt;/span&gt;&lt;span style=&quot;font-style: italic; color: rgb(214, 214, 221);&quot;&gt;off&lt;/span&gt;&lt;span style=&quot;color: rgb(216, 222, 233);&quot;&gt; &lt;/span&gt;&lt;span style=&quot;color: rgb(130, 210, 206);&quot;&gt;int64&lt;/span&gt;&lt;span style=&quot;color: rgb(216, 222, 233);&quot;&gt;) (&lt;/span&gt;&lt;span style=&quot;font-style: italic; color: rgb(214, 214, 221);&quot;&gt;n&lt;/span&gt;&lt;span style=&quot;color: rgb(216, 222, 233);&quot;&gt; &lt;/span&gt;&lt;span style=&quot;color: rgb(130, 210, 206);&quot;&gt;int&lt;/span&gt;&lt;span style=&quot;color: rgb(216, 222, 233);&quot;&gt;, &lt;/span&gt;&lt;span style=&quot;font-style: italic; color: rgb(214, 214, 221);&quot;&gt;err&lt;/span&gt;&lt;span style=&quot;color: rgb(216, 222, 233);&quot;&gt; &lt;/span&gt;&lt;span style=&quot;color: rgb(130, 210, 206);&quot;&gt;error&lt;/span&gt;&lt;span style=&quot;color: rgb(216, 222, 233);&quot;&gt;)&lt;/span&gt;&lt;/font&gt;&lt;/span&gt;&lt;/div&gt;&lt;div style=&quot;&quot;&gt;&lt;span style=&quot;color: rgb(216, 222, 233);&quot;&gt;&lt;font style=&quot;color: rgb(0, 0, 0);&quot;&gt;&amp;nbsp; &amp;nbsp; }&lt;/font&gt;&lt;/span&gt;&lt;/div&gt;&lt;div style=&quot;&quot;&gt;&lt;span style=&quot;color: rgb(216, 222, 233);&quot;&gt;&lt;font style=&quot;color: rgb(0, 0, 0);&quot;&gt;}&lt;/font&gt;&lt;/span&gt;&lt;/div&gt;&lt;/div&gt;" style="text;whiteSpace=wrap;html=1;" vertex="1" parent="1">
          <mxGeometry x="-390" y="-182" width="560" height="420" as="geometry" />
        </mxCell>
        <mxCell id="9XyzuUt3XW7BEuWtiqf8-41" value="&lt;div style=&quot;font-family: Consolas, &amp;quot;Courier New&amp;quot;, monospace; font-size: 14px; line-height: 19px; white-space-collapse: preserve;&quot;&gt;&lt;div style=&quot;&quot;&gt;&lt;br&gt;&lt;/div&gt;&lt;/div&gt;" style="text;html=1;align=center;verticalAlign=middle;resizable=0;points=[];autosize=1;strokeColor=none;fillColor=none;" vertex="1" parent="1">
          <mxGeometry x="830" y="-182" width="20" height="30" as="geometry" />
        </mxCell>
        <mxCell id="9XyzuUt3XW7BEuWtiqf8-42" value="&lt;div style=&quot;font-family: Consolas, &amp;quot;Courier New&amp;quot;, monospace; font-weight: normal; font-size: 14px; line-height: 19px; white-space: pre;&quot;&gt;&lt;div style=&quot;&quot;&gt;&lt;span&gt;&lt;font style=&quot;color: rgb(0, 0, 0);&quot;&gt;&lt;span style=&quot;color: rgb(131, 214, 197);&quot;&gt;type&lt;/span&gt;&lt;span style=&quot;color: rgb(216, 222, 233);&quot;&gt; &lt;/span&gt;&lt;span style=&quot;color: rgb(239, 176, 128);&quot;&gt;Tx&lt;/span&gt;&lt;span style=&quot;color: rgb(216, 222, 233);&quot;&gt; &lt;/span&gt;&lt;span style=&quot;color: rgb(131, 214, 197);&quot;&gt;struct&lt;/span&gt;&lt;span style=&quot;color: rgb(216, 222, 233);&quot;&gt; {&lt;/span&gt;&lt;/font&gt;&lt;/span&gt;&lt;/div&gt;&lt;div style=&quot;&quot;&gt;&lt;span&gt;&lt;font style=&quot;color: rgb(0, 0, 0);&quot;&gt;&lt;span style=&quot;color: rgb(216, 222, 233);&quot;&gt;&amp;nbsp; &amp;nbsp; &lt;/span&gt;&lt;span style=&quot;color: rgb(170, 155, 245);&quot;&gt;writable&lt;/span&gt;&lt;span style=&quot;color: rgb(216, 222, 233);&quot;&gt; &amp;nbsp; &amp;nbsp; &amp;nbsp; &lt;/span&gt;&lt;span style=&quot;color: rgb(130, 210, 206);&quot;&gt;bool&lt;/span&gt;&lt;/font&gt;&lt;/span&gt;&lt;/div&gt;&lt;div style=&quot;&quot;&gt;&lt;span&gt;&lt;font style=&quot;color: rgb(0, 0, 0);&quot;&gt;&lt;span style=&quot;color: rgb(216, 222, 233);&quot;&gt;&amp;nbsp; &amp;nbsp; &lt;/span&gt;&lt;span style=&quot;color: rgb(170, 155, 245);&quot;&gt;managed&lt;/span&gt;&lt;span style=&quot;color: rgb(216, 222, 233);&quot;&gt; &amp;nbsp; &amp;nbsp; &amp;nbsp; &amp;nbsp;&lt;/span&gt;&lt;span style=&quot;color: rgb(130, 210, 206);&quot;&gt;bool&lt;/span&gt;&lt;/font&gt;&lt;/span&gt;&lt;/div&gt;&lt;div style=&quot;&quot;&gt;&lt;span&gt;&lt;font style=&quot;color: rgb(0, 0, 0);&quot;&gt;&lt;span style=&quot;color: rgb(216, 222, 233);&quot;&gt;&amp;nbsp; &amp;nbsp; &lt;/span&gt;&lt;span style=&quot;color: rgb(170, 155, 245);&quot;&gt;db&lt;/span&gt;&lt;span style=&quot;color: rgb(216, 222, 233);&quot;&gt; &amp;nbsp; &amp;nbsp; &amp;nbsp; &amp;nbsp; &amp;nbsp; &amp;nbsp; &lt;/span&gt;&lt;span style=&quot;color: rgb(131, 214, 197);&quot;&gt;*&lt;/span&gt;&lt;span style=&quot;color: rgb(239, 176, 128);&quot;&gt;DB&lt;/span&gt;&lt;/font&gt;&lt;/span&gt;&lt;/div&gt;&lt;div style=&quot;&quot;&gt;&lt;span&gt;&lt;font style=&quot;color: rgb(0, 0, 0);&quot;&gt;&lt;span style=&quot;color: rgb(216, 222, 233);&quot;&gt;&amp;nbsp; &amp;nbsp; &lt;/span&gt;&lt;span style=&quot;color: rgb(170, 155, 245);&quot;&gt;meta&lt;/span&gt;&lt;span style=&quot;color: rgb(216, 222, 233);&quot;&gt; &amp;nbsp; &amp;nbsp; &amp;nbsp; &amp;nbsp; &amp;nbsp; &lt;/span&gt;&lt;span style=&quot;color: rgb(131, 214, 197);&quot;&gt;*&lt;/span&gt;&lt;span style=&quot;color: rgb(239, 176, 128);&quot;&gt;meta&lt;/span&gt;&lt;span style=&quot;color: rgb(216, 222, 233);&quot;&gt; &lt;/span&gt;&lt;span style=&quot;font-style: italic; color: rgb(109, 109, 109);&quot;&gt;// meta 变了什么 pageid &lt;/span&gt;&lt;/font&gt;&lt;/span&gt;&lt;/div&gt;&lt;div style=&quot;&quot;&gt;&lt;span&gt;&lt;font style=&quot;color: rgb(0, 0, 0);&quot;&gt;&lt;span style=&quot;color: rgb(216, 222, 233);&quot;&gt;&amp;nbsp; &amp;nbsp; &lt;/span&gt;&lt;span style=&quot;color: rgb(170, 155, 245);&quot;&gt;buckets&lt;/span&gt;&lt;span style=&quot;color: rgb(216, 222, 233);&quot;&gt; &amp;nbsp; &amp;nbsp; &amp;nbsp; &amp;nbsp;&lt;/span&gt;&lt;span style=&quot;color: rgb(131, 214, 197);&quot;&gt;*&lt;/span&gt;&lt;span style=&quot;color: rgb(239, 176, 128);&quot;&gt;buckets&lt;/span&gt;&lt;/font&gt;&lt;/span&gt;&lt;/div&gt;&lt;div style=&quot;&quot;&gt;&lt;span&gt;&lt;font style=&quot;color: rgb(0, 0, 0);&quot;&gt;&lt;span style=&quot;color: rgb(216, 222, 233);&quot;&gt;&amp;nbsp; &amp;nbsp; &lt;/span&gt;&lt;span style=&quot;color: rgb(170, 155, 245);&quot;&gt;nodes&lt;/span&gt;&lt;span style=&quot;color: rgb(216, 222, 233);&quot;&gt; &amp;nbsp; &amp;nbsp; &amp;nbsp; &amp;nbsp; &amp;nbsp;&lt;/span&gt;&lt;span style=&quot;color: rgb(131, 214, 197);&quot;&gt;map&lt;/span&gt;&lt;span style=&quot;color: rgb(216, 222, 233);&quot;&gt;[&lt;/span&gt;&lt;span style=&quot;color: rgb(239, 176, 128);&quot;&gt;pgid&lt;/span&gt;&lt;span style=&quot;color: rgb(216, 222, 233);&quot;&gt;]&lt;/span&gt;&lt;span style=&quot;color: rgb(131, 214, 197);&quot;&gt;*&lt;/span&gt;&lt;span style=&quot;color: rgb(239, 176, 128);&quot;&gt;node&lt;/span&gt;&lt;span style=&quot;color: rgb(216, 222, 233);&quot;&gt; &lt;/span&gt;&lt;span style=&quot;font-style: italic; color: rgb(109, 109, 109);&quot;&gt;// 节点 怎么加进去的 cursor定位的时候 根据pageId获取到node存进去的&lt;/span&gt;&lt;/font&gt;&lt;/span&gt;&lt;/div&gt;&lt;div style=&quot;&quot;&gt;&lt;span&gt;&lt;font style=&quot;color: rgb(0, 0, 0);&quot;&gt;&lt;span style=&quot;color: rgb(216, 222, 233);&quot;&gt;&amp;nbsp; &amp;nbsp; &lt;/span&gt;&lt;span style=&quot;color: rgb(170, 155, 245);&quot;&gt;pages&lt;/span&gt;&lt;span style=&quot;color: rgb(216, 222, 233);&quot;&gt; &amp;nbsp; &amp;nbsp; &amp;nbsp; &amp;nbsp; &amp;nbsp;&lt;/span&gt;&lt;span style=&quot;color: rgb(131, 214, 197);&quot;&gt;map&lt;/span&gt;&lt;span style=&quot;color: rgb(216, 222, 233);&quot;&gt;[&lt;/span&gt;&lt;span style=&quot;color: rgb(239, 176, 128);&quot;&gt;pgid&lt;/span&gt;&lt;span style=&quot;color: rgb(216, 222, 233);&quot;&gt;]&lt;/span&gt;&lt;span style=&quot;color: rgb(131, 214, 197);&quot;&gt;*&lt;/span&gt;&lt;span style=&quot;color: rgb(239, 176, 128);&quot;&gt;page&lt;/span&gt;&lt;span style=&quot;color: rgb(216, 222, 233);&quot;&gt; &lt;/span&gt;&lt;span style=&quot;font-style: italic; color: rgb(109, 109, 109);&quot;&gt;// 脏页 怎么加进去的 创建桶/写数据的时候 分配了新的页(当前事务meta的pageid会更新)&lt;/span&gt;&lt;/font&gt;&lt;/span&gt;&lt;/div&gt;&lt;div style=&quot;&quot;&gt;&lt;span&gt;&lt;font style=&quot;color: rgb(0, 0, 0);&quot;&gt;&lt;span style=&quot;color: rgb(216, 222, 233);&quot;&gt;&amp;nbsp; &amp;nbsp; &lt;/span&gt;&lt;span style=&quot;color: rgb(170, 155, 245);&quot;&gt;pending&lt;/span&gt;&lt;span style=&quot;color: rgb(216, 222, 233);&quot;&gt; &amp;nbsp; &amp;nbsp; &amp;nbsp; &amp;nbsp;[]&lt;/span&gt;&lt;span style=&quot;color: rgb(131, 214, 197);&quot;&gt;*&lt;/span&gt;&lt;span style=&quot;color: rgb(239, 176, 128);&quot;&gt;node&lt;/span&gt;&lt;/font&gt;&lt;/span&gt;&lt;/div&gt;&lt;div style=&quot;&quot;&gt;&lt;span&gt;&lt;font style=&quot;color: rgb(0, 0, 0);&quot;&gt;&lt;span style=&quot;color: rgb(216, 222, 233);&quot;&gt;&amp;nbsp; &amp;nbsp; &lt;/span&gt;&lt;span style=&quot;color: rgb(170, 155, 245);&quot;&gt;stats&lt;/span&gt;&lt;span style=&quot;color: rgb(216, 222, 233);&quot;&gt; &amp;nbsp; &amp;nbsp; &amp;nbsp; &amp;nbsp; &amp;nbsp;&lt;/span&gt;&lt;span style=&quot;color: rgb(239, 176, 128);&quot;&gt;TxStats&lt;/span&gt;&lt;/font&gt;&lt;/span&gt;&lt;/div&gt;&lt;div style=&quot;&quot;&gt;&lt;span&gt;&lt;font style=&quot;color: rgb(0, 0, 0);&quot;&gt;&lt;span style=&quot;color: rgb(216, 222, 233);&quot;&gt;&amp;nbsp; &amp;nbsp; &lt;/span&gt;&lt;span style=&quot;color: rgb(170, 155, 245);&quot;&gt;commitHandlers&lt;/span&gt;&lt;span style=&quot;color: rgb(216, 222, 233);&quot;&gt; []&lt;/span&gt;&lt;span style=&quot;color: rgb(131, 214, 197);&quot;&gt;func&lt;/span&gt;&lt;span style=&quot;color: rgb(216, 222, 233);&quot;&gt;()&lt;/span&gt;&lt;/font&gt;&lt;/span&gt;&lt;/div&gt;&lt;div style=&quot;&quot;&gt;&lt;span style=&quot;color: rgb(216, 222, 233);&quot;&gt;&lt;font style=&quot;color: rgb(0, 0, 0);&quot;&gt;}&lt;/font&gt;&lt;/span&gt;&lt;/div&gt;&lt;/div&gt;" style="text;whiteSpace=wrap;html=1;" vertex="1" parent="1">
          <mxGeometry x="270" y="-110" width="560" height="250" as="geometry" />
        </mxCell>
        <mxCell id="9XyzuUt3XW7BEuWtiqf8-14" value="" style="shape=table;startSize=0;container=1;collapsible=0;childLayout=tableLayout;" vertex="1" parent="1">
          <mxGeometry x="-330" y="330" width="1200" height="40" as="geometry" />
        </mxCell>
        <mxCell id="9XyzuUt3XW7BEuWtiqf8-15" value="" style="shape=tableRow;horizontal=0;startSize=0;swimlaneHead=0;swimlaneBody=0;strokeColor=inherit;top=0;left=0;bottom=0;right=0;collapsible=0;dropTarget=0;fillColor=none;points=[[0,0.5],[1,0.5]];portConstraint=eastwest;" vertex="1" parent="9XyzuUt3XW7BEuWtiqf8-14">
          <mxGeometry width="1200" height="40" as="geometry" />
        </mxCell>
        <mxCell id="9XyzuUt3XW7BEuWtiqf8-16" value="meta" style="shape=partialRectangle;html=1;whiteSpace=wrap;connectable=0;strokeColor=inherit;overflow=hidden;fillColor=none;top=0;left=0;bottom=0;right=0;pointerEvents=1;" vertex="1" parent="9XyzuUt3XW7BEuWtiqf8-15">
          <mxGeometry width="60" height="40" as="geometry">
            <mxRectangle width="60" height="40" as="alternateBounds" />
          </mxGeometry>
        </mxCell>
        <mxCell id="9XyzuUt3XW7BEuWtiqf8-17" value="meta" style="shape=partialRectangle;html=1;whiteSpace=wrap;connectable=0;strokeColor=inherit;overflow=hidden;fillColor=none;top=0;left=0;bottom=0;right=0;pointerEvents=1;" vertex="1" parent="9XyzuUt3XW7BEuWtiqf8-15">
          <mxGeometry x="60" width="60" height="40" as="geometry">
            <mxRectangle width="60" height="40" as="alternateBounds" />
          </mxGeometry>
        </mxCell>
        <mxCell id="9XyzuUt3XW7BEuWtiqf8-18" value="freelist" style="shape=partialRectangle;html=1;whiteSpace=wrap;connectable=0;strokeColor=inherit;overflow=hidden;fillColor=none;top=0;left=0;bottom=0;right=0;pointerEvents=1;" vertex="1" parent="9XyzuUt3XW7BEuWtiqf8-15">
          <mxGeometry x="120" width="60" height="40" as="geometry">
            <mxRectangle width="60" height="40" as="alternateBounds" />
          </mxGeometry>
        </mxCell>
        <mxCell id="9XyzuUt3XW7BEuWtiqf8-19" value="buckets" style="shape=partialRectangle;html=1;whiteSpace=wrap;connectable=0;strokeColor=inherit;overflow=hidden;fillColor=none;top=0;left=0;bottom=0;right=0;pointerEvents=1;" vertex="1" parent="9XyzuUt3XW7BEuWtiqf8-15">
          <mxGeometry x="180" width="60" height="40" as="geometry">
            <mxRectangle width="60" height="40" as="alternateBounds" />
          </mxGeometry>
        </mxCell>
        <mxCell id="9XyzuUt3XW7BEuWtiqf8-20" value="" style="shape=partialRectangle;html=1;whiteSpace=wrap;connectable=0;strokeColor=inherit;overflow=hidden;fillColor=none;top=0;left=0;bottom=0;right=0;pointerEvents=1;" vertex="1" parent="9XyzuUt3XW7BEuWtiqf8-15">
          <mxGeometry x="240" width="60" height="40" as="geometry">
            <mxRectangle width="60" height="40" as="alternateBounds" />
          </mxGeometry>
        </mxCell>
        <mxCell id="9XyzuUt3XW7BEuWtiqf8-21" value="" style="shape=partialRectangle;html=1;whiteSpace=wrap;connectable=0;strokeColor=inherit;overflow=hidden;fillColor=none;top=0;left=0;bottom=0;right=0;pointerEvents=1;" vertex="1" parent="9XyzuUt3XW7BEuWtiqf8-15">
          <mxGeometry x="300" width="60" height="40" as="geometry">
            <mxRectangle width="60" height="40" as="alternateBounds" />
          </mxGeometry>
        </mxCell>
        <mxCell id="9XyzuUt3XW7BEuWtiqf8-22" value="" style="shape=partialRectangle;html=1;whiteSpace=wrap;connectable=0;strokeColor=inherit;overflow=hidden;fillColor=none;top=0;left=0;bottom=0;right=0;pointerEvents=1;" vertex="1" parent="9XyzuUt3XW7BEuWtiqf8-15">
          <mxGeometry x="360" width="60" height="40" as="geometry">
            <mxRectangle width="60" height="40" as="alternateBounds" />
          </mxGeometry>
        </mxCell>
        <mxCell id="9XyzuUt3XW7BEuWtiqf8-23" value="" style="shape=partialRectangle;html=1;whiteSpace=wrap;connectable=0;strokeColor=inherit;overflow=hidden;fillColor=none;top=0;left=0;bottom=0;right=0;pointerEvents=1;" vertex="1" parent="9XyzuUt3XW7BEuWtiqf8-15">
          <mxGeometry x="420" width="60" height="40" as="geometry">
            <mxRectangle width="60" height="40" as="alternateBounds" />
          </mxGeometry>
        </mxCell>
        <mxCell id="9XyzuUt3XW7BEuWtiqf8-24" value="" style="shape=partialRectangle;html=1;whiteSpace=wrap;connectable=0;strokeColor=inherit;overflow=hidden;fillColor=none;top=0;left=0;bottom=0;right=0;pointerEvents=1;" vertex="1" parent="9XyzuUt3XW7BEuWtiqf8-15">
          <mxGeometry x="480" width="60" height="40" as="geometry">
            <mxRectangle width="60" height="40" as="alternateBounds" />
          </mxGeometry>
        </mxCell>
        <mxCell id="9XyzuUt3XW7BEuWtiqf8-25" value="" style="shape=partialRectangle;html=1;whiteSpace=wrap;connectable=0;strokeColor=inherit;overflow=hidden;fillColor=none;top=0;left=0;bottom=0;right=0;pointerEvents=1;" vertex="1" parent="9XyzuUt3XW7BEuWtiqf8-15">
          <mxGeometry x="540" width="60" height="40" as="geometry">
            <mxRectangle width="60" height="40" as="alternateBounds" />
          </mxGeometry>
        </mxCell>
        <mxCell id="9XyzuUt3XW7BEuWtiqf8-26" value="" style="shape=partialRectangle;html=1;whiteSpace=wrap;connectable=0;strokeColor=inherit;overflow=hidden;fillColor=none;top=0;left=0;bottom=0;right=0;pointerEvents=1;" vertex="1" parent="9XyzuUt3XW7BEuWtiqf8-15">
          <mxGeometry x="600" width="60" height="40" as="geometry">
            <mxRectangle width="60" height="40" as="alternateBounds" />
          </mxGeometry>
        </mxCell>
        <mxCell id="9XyzuUt3XW7BEuWtiqf8-27" value="" style="shape=partialRectangle;html=1;whiteSpace=wrap;connectable=0;strokeColor=inherit;overflow=hidden;fillColor=none;top=0;left=0;bottom=0;right=0;pointerEvents=1;" vertex="1" parent="9XyzuUt3XW7BEuWtiqf8-15">
          <mxGeometry x="660" width="60" height="40" as="geometry">
            <mxRectangle width="60" height="40" as="alternateBounds" />
          </mxGeometry>
        </mxCell>
        <mxCell id="9XyzuUt3XW7BEuWtiqf8-28" value="" style="shape=partialRectangle;html=1;whiteSpace=wrap;connectable=0;strokeColor=inherit;overflow=hidden;fillColor=none;top=0;left=0;bottom=0;right=0;pointerEvents=1;" vertex="1" parent="9XyzuUt3XW7BEuWtiqf8-15">
          <mxGeometry x="720" width="60" height="40" as="geometry">
            <mxRectangle width="60" height="40" as="alternateBounds" />
          </mxGeometry>
        </mxCell>
        <mxCell id="9XyzuUt3XW7BEuWtiqf8-29" value="" style="shape=partialRectangle;html=1;whiteSpace=wrap;connectable=0;strokeColor=inherit;overflow=hidden;fillColor=none;top=0;left=0;bottom=0;right=0;pointerEvents=1;" vertex="1" parent="9XyzuUt3XW7BEuWtiqf8-15">
          <mxGeometry x="780" width="60" height="40" as="geometry">
            <mxRectangle width="60" height="40" as="alternateBounds" />
          </mxGeometry>
        </mxCell>
        <mxCell id="9XyzuUt3XW7BEuWtiqf8-30" value="" style="shape=partialRectangle;html=1;whiteSpace=wrap;connectable=0;strokeColor=inherit;overflow=hidden;fillColor=none;top=0;left=0;bottom=0;right=0;pointerEvents=1;" vertex="1" parent="9XyzuUt3XW7BEuWtiqf8-15">
          <mxGeometry x="840" width="60" height="40" as="geometry">
            <mxRectangle width="60" height="40" as="alternateBounds" />
          </mxGeometry>
        </mxCell>
        <mxCell id="9XyzuUt3XW7BEuWtiqf8-31" value="" style="shape=partialRectangle;html=1;whiteSpace=wrap;connectable=0;strokeColor=inherit;overflow=hidden;fillColor=none;top=0;left=0;bottom=0;right=0;pointerEvents=1;" vertex="1" parent="9XyzuUt3XW7BEuWtiqf8-15">
          <mxGeometry x="900" width="60" height="40" as="geometry">
            <mxRectangle width="60" height="40" as="alternateBounds" />
          </mxGeometry>
        </mxCell>
        <mxCell id="9XyzuUt3XW7BEuWtiqf8-32" value="" style="shape=partialRectangle;html=1;whiteSpace=wrap;connectable=0;strokeColor=inherit;overflow=hidden;fillColor=none;top=0;left=0;bottom=0;right=0;pointerEvents=1;" vertex="1" parent="9XyzuUt3XW7BEuWtiqf8-15">
          <mxGeometry x="960" width="60" height="40" as="geometry">
            <mxRectangle width="60" height="40" as="alternateBounds" />
          </mxGeometry>
        </mxCell>
        <mxCell id="9XyzuUt3XW7BEuWtiqf8-33" value="" style="shape=partialRectangle;html=1;whiteSpace=wrap;connectable=0;strokeColor=inherit;overflow=hidden;fillColor=none;top=0;left=0;bottom=0;right=0;pointerEvents=1;" vertex="1" parent="9XyzuUt3XW7BEuWtiqf8-15">
          <mxGeometry x="1020" width="60" height="40" as="geometry">
            <mxRectangle width="60" height="40" as="alternateBounds" />
          </mxGeometry>
        </mxCell>
        <mxCell id="9XyzuUt3XW7BEuWtiqf8-34" value="" style="shape=partialRectangle;html=1;whiteSpace=wrap;connectable=0;strokeColor=inherit;overflow=hidden;fillColor=none;top=0;left=0;bottom=0;right=0;pointerEvents=1;" vertex="1" parent="9XyzuUt3XW7BEuWtiqf8-15">
          <mxGeometry x="1080" width="60" height="40" as="geometry">
            <mxRectangle width="60" height="40" as="alternateBounds" />
          </mxGeometry>
        </mxCell>
        <mxCell id="9XyzuUt3XW7BEuWtiqf8-35" value="" style="shape=partialRectangle;html=1;whiteSpace=wrap;connectable=0;strokeColor=inherit;overflow=hidden;fillColor=none;top=0;left=0;bottom=0;right=0;pointerEvents=1;" vertex="1" parent="9XyzuUt3XW7BEuWtiqf8-15">
          <mxGeometry x="1140" width="60" height="40" as="geometry">
            <mxRectangle width="60" height="40" as="alternateBounds" />
          </mxGeometry>
        </mxCell>
      </root>
    </mxGraphModel>
  </diagram>
</mxfile>
